<?xml version="1.0" encoding="UTF-8"?>
<svg width="180px" height="48px" viewBox="0 0 180 48" version="1.1" xmlns="http://www.w3.org/2000/svg" xmlns:xlink="http://www.w3.org/1999/xlink">
    <title>logo-white</title>
    <g id="Track-Widget" stroke="none" stroke-width="1" fill="none" fill-rule="evenodd">
        <g id="logo-white" transform="translate(-0.000000, 0.923333)">
            <g id="Group-9" transform="translate(0.000000, 0.000000)">
                <path d="M15.3093573,0.0766666667 L38.2772022,23.0789978 L15.3093573,46.081329 L7.65340902,46.081329 L30.6212539,23.0789978 L7.65764116,0.0766666667 L15.3093573,0.0766666667 Z M45.9297648,30.7455939 L30.6178682,46.0804813 L22.9619199,46.0804813 L45.9297648,23.0781501 L22.9661521,0.0809051651 L30.6221004,0.0809051651 L45.9297648,15.4115541 L45.9297648,30.7455939 Z M45.9310345,38.4130376 L45.9310345,46.0762428 L38.270854,46.0804813 L45.9310345,38.4130376 Z M0,0.0766666667 L22.9678449,23.0789978 L0,46.0770905 L0,38.4096468 L15.3118966,23.0789978 L0,7.74411039 L0,0.0766666667 Z M0.00253928634,15.4115541 L7.65848759,23.0789978 L0.00253928634,30.7464416 L0.00253928634,15.4115541 Z M45.9293416,0.0809051651 L45.9293416,7.74834889 L38.2733933,0.0809051651 L45.9293416,0.0809051651 Z" id="Combined-Shape" fill="#D20020"></path>
                <path d="M58.5680568,11.0156061 C59.7831705,11.0156061 60.342375,10.4555619 60.342375,9.46179924 L60.342375,9.38600379 C60.342375,8.37960859 59.7999886,7.85325126 58.4545341,7.85325126 L56.9787386,7.85325126 L56.9787386,11.0156061 L58.5680568,11.0156061 Z M58.4377159,5.51622475 C59.6318068,5.51622475 60.0816932,5.10356061 60.0816932,4.14769571 L60.0816932,4.07611111 C60.0816932,3.15814394 59.5939659,2.7454798 58.4377159,2.7454798 L56.9787386,2.7454798 L56.9787386,5.51622475 L58.4377159,5.51622475 Z M53.2451023,0.202121212 L59.2029432,0.202121212 C62.3605568,0.202121212 63.7060114,1.62539141 63.7060114,3.7013447 L63.7060114,3.77292929 C63.7060114,5.27199495 62.9407841,6.26575758 61.4439659,6.65736742 C63.0879432,6.93528409 64.1180568,7.92904672 64.1180568,9.78182449 L64.1180568,9.85761995 C64.1180568,12.2493876 62.5665795,13.5800189 59.2576023,13.5800189 L53.2451023,13.5800189 L53.2451023,0.202121212 Z M65.8112273,0.202121212 L70.8020227,0.202121212 L73.3583864,7.3311048 L75.9189545,0.202121212 L80.8130455,0.202121212 L80.8130455,13.5800189 L77.0037273,13.5800189 L77.0037273,5.25515152 L73.7325909,13.5800189 L72.4628182,13.5800189 L69.2295227,5.25515152 L69.2295227,13.5800189 L65.8112273,13.5800189 L65.8112273,0.202121212 Z M82.473,6.97739268 L82.473,6.82580177 C82.473,2.74969066 85.4624318,0 89.4777727,0 C92.6353864,0 95.4398182,1.44011364 95.7005,4.91828283 L91.908,4.91828283 C91.7187955,3.66765783 90.9157273,3.01076389 89.4987955,3.01076389 C87.6109545,3.01076389 86.4715227,4.47193182 86.4715227,6.88475379 L86.4715227,7.03213384 C86.4715227,9.20493687 87.2745909,10.8892803 89.5912955,10.8892803 C91.4581136,10.8892803 92.1686818,9.9334154 92.2443636,8.86806818 L89.7384545,8.86806818 L89.7384545,6.18996212 L96.0200455,6.18996212 L96.0200455,7.83640783 C96.0200455,11.2429924 93.7958409,13.8074053 89.4777727,13.8074053 C84.9368636,13.8074053 82.473,10.9819192 82.473,6.97739268 M58.1568523,22.6038889 C59.3887841,22.6038889 60.0446932,22.0227904 60.0446932,20.9195455 L60.0446932,20.84375 C60.0446932,19.7026073 59.3719659,19.235202 58.1736705,19.235202 L57.0552614,19.235202 L57.0552614,22.6038889 L58.1568523,22.6038889 Z M53.2417386,16.3549747 L58.3250341,16.3549747 C61.9871932,16.3549747 63.6858295,17.9803662 63.6858295,20.8269066 L63.6858295,20.902702 C63.6858295,23.7071338 61.8021932,25.2230429 58.4932159,25.2230429 L57.0552614,25.2230429 L57.0552614,29.7328725 L53.2417386,29.7328725 L53.2417386,16.3549747 Z M70.3925,22.452298 C71.6832955,22.452298 72.3181818,21.9090972 72.3181818,20.8226957 L72.3181818,20.7511111 C72.3181818,19.6647096 71.6454545,19.235202 70.4093182,19.235202 L69.1605682,19.235202 L69.1605682,22.452298 L70.3925,22.452298 Z M65.3470455,16.3507639 L70.5775,16.3507639 C74.0714773,16.3507639 76.0139773,17.7740341 76.0139773,20.5995202 L76.0139773,20.6753157 C76.0139773,22.5828346 75.0090909,23.6481818 73.6047727,24.1913826 L76.8002273,29.7286616 L72.7638636,29.7286616 L70.0561364,24.9409154 L69.1605682,24.9409154 L69.1605682,29.7286616 L65.3470455,29.7286616 L65.3470455,16.3507639 Z M87.5609205,23.0881376 L87.5609205,22.9365467 C87.5609205,20.5616225 86.3668295,19.1594066 84.4789886,19.1594066 C82.5911477,19.1594066 81.413875,20.5237247 81.413875,22.957601 L81.413875,23.1049811 C81.413875,25.5388573 82.6458068,26.9410732 84.4958068,26.9410732 C86.3836477,26.9410732 87.5609205,25.4841162 87.5609205,23.0881376 M77.4153523,23.1260354 L77.4153523,22.9744444 C77.4153523,18.8983333 80.4804659,16.1654861 84.4789886,16.1654861 C88.5489886,16.1654861 91.5594432,18.729899 91.5594432,22.8818056 L91.5594432,23.0333965 C91.5594432,27.1474053 88.7381932,29.956048 84.420125,29.956048 C80.1062614,29.956048 77.4153523,27.1474053 77.4153523,23.1260354 M97.9125114,26.7768497 C100.191375,26.7768497 101.200466,25.5809659 101.200466,23.0923485 L101.200466,22.9407576 C101.200466,20.397399 100.191375,19.3109975 97.8746705,19.3109975 L97.0337614,19.3109975 L97.0337614,26.7768497 L97.9125114,26.7768497 Z M93.1866023,16.3549747 L98.0428523,16.3549747 C102.789784,16.3549747 105.198989,18.729899 105.198989,22.8860164 L105.198989,23.0333965 C105.198989,27.2063573 102.73092,29.7328725 98.0260341,29.7328725 L93.1866023,29.7328725 L93.1866023,16.3549747 Z M106.678989,24.3050758 L106.678989,16.3507639 L110.50933,16.3507639 L110.50933,24.1366414 C110.50933,26.0273169 110.976034,26.9410732 112.603193,26.9410732 C114.188307,26.9410732 114.692852,26.0820581 114.692852,24.0776894 L114.692852,16.3507639 L118.561034,16.3507639 L118.561034,24.2503346 C118.561034,28.1411679 116.28217,29.956048 112.603193,29.956048 C108.827511,29.956048 106.678989,28.048529 106.678989,24.3050758 M120.230239,23.1260354 L120.230239,22.9744444 C120.230239,18.8604356 123.143989,16.1486427 127.050011,16.1486427 C130.52717,16.1486427 132.936375,17.7571907 133.251716,21.2943119 L129.312057,21.2943119 C129.160693,19.9257828 128.412284,19.17625 127.06683,19.17625 C125.351375,19.17625 124.266602,20.5237247 124.266602,22.957601 L124.266602,23.1091919 C124.266602,25.5220139 125.292511,26.8863321 127.125693,26.8863321 C128.466943,26.8863321 129.421375,26.174697 129.61058,24.6966856 L133.419898,24.6966856 C133.159216,28.1580114 130.653307,29.956048 127.201375,29.956048 C122.530125,29.956048 120.230239,27.2232008 120.230239,23.1260354 M137.855693,19.3109975 L134.399557,19.3109975 L134.399557,16.3549747 L145.163193,16.3549747 L145.163193,19.3109975 L141.702852,19.3109975 L141.702852,29.7328725 L137.855693,29.7328725 L137.855693,19.3109975 Z M146.672625,29.7328725 L150.540807,29.7328725 L150.540807,16.3549747 L146.672625,16.3549747 L146.672625,29.7328725 Z M162.313534,23.0881376 L162.313534,22.9365467 C162.313534,20.5616225 161.119443,19.1594066 159.231602,19.1594066 C157.343761,19.1594066 156.166489,20.5237247 156.166489,22.957601 L156.166489,23.1049811 C156.166489,25.5388573 157.39842,26.9410732 159.24842,26.9410732 C161.136261,26.9410732 162.313534,25.4841162 162.313534,23.0881376 M152.167966,23.1260354 L152.167966,22.9744444 C152.167966,18.8983333 155.23308,16.1654861 159.231602,16.1654861 C163.305807,16.1654861 166.312057,18.729899 166.312057,22.8818056 L166.312057,23.0333965 C166.312057,27.1474053 163.490807,29.956048 159.172739,29.956048 C154.858875,29.956048 152.167966,27.1474053 152.167966,23.1260354 M167.935011,16.3549747 L172.248875,16.3549747 L176.529102,23.8966225 L176.529102,16.3549747 L179.871716,16.3549747 L179.871716,29.7328725 L176.17592,29.7328725 L171.298648,21.3322096 L171.298648,29.7328725 L167.935011,29.7328725 L167.935011,16.3549747 Z M53.243,32.5048807 L58.2295909,32.5048807 L60.7901591,39.6338643 L63.3507273,32.5048807 L68.2448182,32.5048807 L68.2448182,45.8827784 L64.4355,45.8827784 L64.4355,37.557911 L61.1643636,45.8827784 L59.8945909,45.8827784 L56.6612955,37.557911 L56.6612955,45.8827784 L53.243,45.8827784 L53.243,32.5048807 Z M70.0523523,40.4570871 L70.0523523,32.5027753 L73.8826932,32.5027753 L73.8826932,40.2886528 C73.8826932,42.1793283 74.3493977,43.0930846 75.9765568,43.0930846 C77.5616705,43.0930846 78.0662159,42.2340694 78.0662159,40.2297008 L78.0662159,32.5027753 L81.9343977,32.5027753 L81.9343977,40.402346 C81.9343977,44.2931793 79.6555341,46.1080593 75.9765568,46.1080593 C72.200875,46.1080593 70.0523523,44.2005404 70.0523523,40.4570871 M83.319375,41.6352854 L86.9647159,41.6352854 C87.0572159,42.5911503 87.4860795,43.3743699 89.0753977,43.3743699 C90.1769886,43.3743699 90.7950568,42.8311692 90.7950568,42.0479495 C90.7950568,41.2226212 90.2863068,40.9994457 88.6801705,40.7552159 C84.9086932,40.3088649 83.6389205,39.1845657 83.6389205,36.4896162 C83.6389205,34.0767942 85.6192614,32.3166553 88.8105114,32.3166553 C92.0269886,32.3166553 93.8391477,33.6641301 94.0788068,36.4896162 L90.5301705,36.4896162 C90.3998295,35.5337513 89.8574432,35.0495025 88.8105114,35.0495025 C87.7846023,35.0495025 87.2632386,35.5169078 87.2632386,36.1906452 C87.2632386,36.940178 87.6710795,37.2770467 89.3360795,37.5002222 C92.7165341,37.8749886 94.4530114,38.7550581 94.4530114,41.6521288 C94.4530114,44.1028485 92.5105114,46.1072172 89.0753977,46.1072172 C85.3375568,46.1072172 83.4328977,44.5365669 83.319375,41.6352854 M96.1592159,45.8815152 L100.027398,45.8815152 L100.027398,32.5036174 L96.1592159,32.5036174 L96.1592159,45.8815152 Z M101.688193,39.2776256 L101.688193,39.1260347 C101.688193,35.0120259 104.601943,32.300233 108.507966,32.300233 C111.98092,32.300233 114.390125,33.9087809 114.70967,37.4459021 L110.770011,37.4459021 C110.618648,36.0773731 109.870239,35.3278403 108.524784,35.3278403 C106.80933,35.3278403 105.724557,36.675315 105.724557,39.1091913 L105.724557,39.2607822 C105.724557,41.6736042 106.750466,43.0379223 108.583648,43.0379223 C109.924898,43.0379223 110.87933,42.3262872 111.068534,40.8482759 L114.877852,40.8482759 C114.61717,44.3096016 112.111261,46.1076383 108.65933,46.1076383 C103.98808,46.1076383 101.688193,43.374791 101.688193,39.2776256" id="Combined-Shape" fill="#FFFFFF"></path>
            </g>
        </g>
    </g>
</svg>